<mxfile host="app.diagrams.net" modified="2024-05-03T08:39:38.141Z" agent="Mozilla/5.0 (Windows NT 10.0; Win64; x64) AppleWebKit/537.36 (KHTML, like Gecko) Chrome/124.0.0.0 Safari/537.36" etag="zREEjK1W3OIfWXA8lKlK" version="24.3.1" type="device">
  <diagram name="Page-1" id="L60tmZbraFdtdqOJciTO">
    <mxGraphModel dx="1461" dy="652" grid="1" gridSize="10" guides="1" tooltips="1" connect="1" arrows="1" fold="1" page="1" pageScale="1" pageWidth="850" pageHeight="1100" math="0" shadow="0">
      <root>
        <mxCell id="0" />
        <mxCell id="1" parent="0" />
        <mxCell id="ThZZnJo1GwcCxnkyeLYi-1" value="Doctor" style="html=1;whiteSpace=wrap;" vertex="1" parent="1">
          <mxGeometry x="140" y="410" width="110" height="50" as="geometry" />
        </mxCell>
        <mxCell id="ThZZnJo1GwcCxnkyeLYi-2" value="Pharmacist" style="html=1;whiteSpace=wrap;" vertex="1" parent="1">
          <mxGeometry x="410" y="410" width="110" height="50" as="geometry" />
        </mxCell>
        <mxCell id="ThZZnJo1GwcCxnkyeLYi-3" value="send patient info&lt;div&gt;send preliminary diagnosis&amp;nbsp;&lt;/div&gt;&lt;div&gt;and prescription&lt;/div&gt;" style="html=1;verticalAlign=bottom;endArrow=block;curved=0;rounded=0;entryX=0;entryY=0.25;entryDx=0;entryDy=0;exitX=1;exitY=0.25;exitDx=0;exitDy=0;" edge="1" parent="1" source="ThZZnJo1GwcCxnkyeLYi-1" target="ThZZnJo1GwcCxnkyeLYi-2">
          <mxGeometry width="80" relative="1" as="geometry">
            <mxPoint x="250" y="420" as="sourcePoint" />
            <mxPoint x="330" y="420" as="targetPoint" />
          </mxGeometry>
        </mxCell>
        <mxCell id="ThZZnJo1GwcCxnkyeLYi-4" value="return adjusted prescription" style="html=1;verticalAlign=bottom;endArrow=block;curved=0;rounded=0;exitX=0;exitY=0.75;exitDx=0;exitDy=0;entryX=1;entryY=0.75;entryDx=0;entryDy=0;" edge="1" parent="1" source="ThZZnJo1GwcCxnkyeLYi-2" target="ThZZnJo1GwcCxnkyeLYi-1">
          <mxGeometry y="23" width="80" relative="1" as="geometry">
            <mxPoint x="380" y="540" as="sourcePoint" />
            <mxPoint x="460" y="540" as="targetPoint" />
            <mxPoint as="offset" />
          </mxGeometry>
        </mxCell>
      </root>
    </mxGraphModel>
  </diagram>
</mxfile>
